<mxfile host="app.diagrams.net" modified="2023-08-30T07:02:35.185Z" agent="Mozilla/5.0 (Windows NT 10.0; Win64; x64) AppleWebKit/537.36 (KHTML, like Gecko) Chrome/116.0.0.0 Safari/537.36" etag="VjmlIpjLREorr4W9XotE" version="21.6.9" type="github">
  <diagram name="第 1 页" id="04hBHjbx0xGgv9nJt4oE">
    <mxGraphModel dx="1434" dy="758" grid="1" gridSize="10" guides="1" tooltips="1" connect="1" arrows="1" fold="1" page="1" pageScale="1" pageWidth="827" pageHeight="1169" math="0" shadow="0">
      <root>
        <mxCell id="0" />
        <mxCell id="1" parent="0" />
        <mxCell id="op5o-dLxVGm1uc3Zo5FP-15" value="" style="rounded=1;whiteSpace=wrap;html=1;fillColor=#f8cecc;strokeColor=#b85450;" vertex="1" parent="1">
          <mxGeometry x="100" y="340" width="650" height="50" as="geometry" />
        </mxCell>
        <mxCell id="op5o-dLxVGm1uc3Zo5FP-16" value="" style="rounded=0;whiteSpace=wrap;html=1;fillColor=#000000;" vertex="1" parent="1">
          <mxGeometry x="133" y="350" width="30" height="30" as="geometry" />
        </mxCell>
        <mxCell id="op5o-dLxVGm1uc3Zo5FP-17" value="" style="rounded=0;whiteSpace=wrap;html=1;fillColor=#000000;" vertex="1" parent="1">
          <mxGeometry x="183" y="350" width="30" height="30" as="geometry" />
        </mxCell>
        <mxCell id="op5o-dLxVGm1uc3Zo5FP-18" value="" style="rounded=0;whiteSpace=wrap;html=1;fillColor=#FFFFFF;" vertex="1" parent="1">
          <mxGeometry x="233" y="350" width="30" height="30" as="geometry" />
        </mxCell>
        <mxCell id="op5o-dLxVGm1uc3Zo5FP-19" value="" style="rounded=0;whiteSpace=wrap;html=1;fillColor=#FFFFFF;" vertex="1" parent="1">
          <mxGeometry x="283" y="350" width="30" height="30" as="geometry" />
        </mxCell>
        <mxCell id="op5o-dLxVGm1uc3Zo5FP-20" value="" style="rounded=0;whiteSpace=wrap;html=1;fillColor=#FFFFFF;" vertex="1" parent="1">
          <mxGeometry x="333" y="350" width="30" height="30" as="geometry" />
        </mxCell>
        <mxCell id="op5o-dLxVGm1uc3Zo5FP-21" value="" style="rounded=0;whiteSpace=wrap;html=1;fillColor=#FFFFFF;" vertex="1" parent="1">
          <mxGeometry x="383" y="350" width="30" height="30" as="geometry" />
        </mxCell>
        <mxCell id="op5o-dLxVGm1uc3Zo5FP-22" value="" style="rounded=0;whiteSpace=wrap;html=1;fillColor=#FFFFFF;" vertex="1" parent="1">
          <mxGeometry x="433" y="350" width="30" height="30" as="geometry" />
        </mxCell>
        <mxCell id="op5o-dLxVGm1uc3Zo5FP-23" value="" style="rounded=0;whiteSpace=wrap;html=1;fillColor=#FFFFFF;" vertex="1" parent="1">
          <mxGeometry x="483" y="350" width="30" height="30" as="geometry" />
        </mxCell>
        <mxCell id="op5o-dLxVGm1uc3Zo5FP-24" value="" style="rounded=0;whiteSpace=wrap;html=1;fillColor=#FFFFFF;" vertex="1" parent="1">
          <mxGeometry x="533" y="350" width="30" height="30" as="geometry" />
        </mxCell>
        <mxCell id="op5o-dLxVGm1uc3Zo5FP-25" value="" style="rounded=0;whiteSpace=wrap;html=1;fillColor=#FFFFFF;" vertex="1" parent="1">
          <mxGeometry x="583" y="350" width="30" height="30" as="geometry" />
        </mxCell>
        <mxCell id="op5o-dLxVGm1uc3Zo5FP-26" value="" style="rounded=0;whiteSpace=wrap;html=1;fillColor=#FFFFFF;" vertex="1" parent="1">
          <mxGeometry x="633" y="350" width="30" height="30" as="geometry" />
        </mxCell>
        <mxCell id="op5o-dLxVGm1uc3Zo5FP-27" value="" style="rounded=0;whiteSpace=wrap;html=1;fillColor=#FFFFFF;" vertex="1" parent="1">
          <mxGeometry x="683" y="350" width="30" height="30" as="geometry" />
        </mxCell>
      </root>
    </mxGraphModel>
  </diagram>
</mxfile>
